<mxfile host="app.diagrams.net" agent="Mozilla/5.0 (X11; Linux x86_64; rv:142.0) Gecko/20100101 Firefox/142.0" version="28.1.2">
  <diagram name="Page-1" id="Oe-gZjNoALUQdBJx6kQQ">
    <mxGraphModel dx="1426" dy="794" grid="1" gridSize="10" guides="1" tooltips="1" connect="1" arrows="1" fold="1" page="1" pageScale="1" pageWidth="850" pageHeight="1100" math="0" shadow="0">
      <root>
        <mxCell id="0" />
        <mxCell id="1" parent="0" />
        <mxCell id="qi3RKUOaajVcWp68-wjY-1" value="" style="verticalLabelPosition=bottom;verticalAlign=top;html=1;shape=mxgraph.basic.half_circle;direction=south;" parent="1" vertex="1">
          <mxGeometry x="110" y="40" width="300" height="600" as="geometry" />
        </mxCell>
        <mxCell id="qi3RKUOaajVcWp68-wjY-2" value="" style="verticalLabelPosition=bottom;verticalAlign=top;html=1;shape=mxgraph.basic.half_circle;direction=north;" parent="1" vertex="1">
          <mxGeometry x="410" y="40" width="300" height="600" as="geometry" />
        </mxCell>
        <mxCell id="qi3RKUOaajVcWp68-wjY-3" value="" style="shape=hexagon;perimeter=hexagonPerimeter2;whiteSpace=wrap;html=1;fixedSize=1;direction=south;size=110;" parent="1" vertex="1">
          <mxGeometry x="200" y="120" width="420" height="460" as="geometry" />
        </mxCell>
        <mxCell id="qi3RKUOaajVcWp68-wjY-4" value="" style="shape=hexagon;perimeter=hexagonPerimeter2;whiteSpace=wrap;html=1;fixedSize=1;direction=south;size=50;" parent="1" vertex="1">
          <mxGeometry x="320" y="240" width="180" height="200" as="geometry" />
        </mxCell>
        <mxCell id="qi3RKUOaajVcWp68-wjY-5" value="&lt;font style=&quot;font-size: 28px;&quot;&gt;DRIVING SIDE&lt;/font&gt;" style="text;html=1;align=center;verticalAlign=middle;resizable=0;points=[];autosize=1;strokeColor=none;fillColor=none;" parent="1" vertex="1">
          <mxGeometry x="10" y="70" width="210" height="50" as="geometry" />
        </mxCell>
        <mxCell id="qi3RKUOaajVcWp68-wjY-6" value="&lt;font style=&quot;font-size: 28px;&quot;&gt;DRIVEN SIDE&lt;/font&gt;" style="text;html=1;align=center;verticalAlign=middle;resizable=0;points=[];autosize=1;strokeColor=none;fillColor=none;" parent="1" vertex="1">
          <mxGeometry x="620" y="60" width="200" height="50" as="geometry" />
        </mxCell>
        <mxCell id="qi3RKUOaajVcWp68-wjY-7" value="&lt;font style=&quot;font-size: 20px;&quot;&gt;User Interface&lt;/font&gt;" style="text;html=1;align=center;verticalAlign=middle;resizable=0;points=[];autosize=1;strokeColor=none;fillColor=none;rotation=-30;" parent="1" vertex="1">
          <mxGeometry x="190" y="120" width="150" height="40" as="geometry" />
        </mxCell>
        <mxCell id="qi3RKUOaajVcWp68-wjY-8" value="&lt;font style=&quot;font-size: 20px;&quot;&gt;Infrastructure&lt;/font&gt;" style="text;html=1;align=center;verticalAlign=middle;resizable=0;points=[];autosize=1;strokeColor=none;fillColor=none;rotation=30;" parent="1" vertex="1">
          <mxGeometry x="480" y="120" width="140" height="40" as="geometry" />
        </mxCell>
        <mxCell id="qi3RKUOaajVcWp68-wjY-9" value="&lt;font style=&quot;font-size: 20px;&quot;&gt;Application&lt;/font&gt;" style="text;html=1;align=center;verticalAlign=middle;resizable=0;points=[];autosize=1;strokeColor=none;fillColor=none;rotation=0;" parent="1" vertex="1">
          <mxGeometry x="350" y="140" width="120" height="40" as="geometry" />
        </mxCell>
        <mxCell id="qi3RKUOaajVcWp68-wjY-10" value="&lt;font style=&quot;font-size: 20px;&quot;&gt;Domain&lt;/font&gt;" style="text;html=1;align=center;verticalAlign=middle;resizable=0;points=[];autosize=1;strokeColor=none;fillColor=none;rotation=0;" parent="1" vertex="1">
          <mxGeometry x="365" y="320" width="90" height="40" as="geometry" />
        </mxCell>
        <mxCell id="qi3RKUOaajVcWp68-wjY-15" value="" style="rounded=0;whiteSpace=wrap;html=1;fillColor=light-dark(#FFCCCC,#FF3333);strokeColor=#36393d;" parent="1" vertex="1">
          <mxGeometry x="200" y="270" width="40" height="140" as="geometry" />
        </mxCell>
        <mxCell id="qi3RKUOaajVcWp68-wjY-14" value="Adapter" style="shape=module;align=left;spacingLeft=-12;align=center;verticalAlign=top;whiteSpace=wrap;html=1;spacingTop=3;spacing=0;fillColor=light-dark(#FFFFFF,#333333);strokeColor=default;perimeterSpacing=0;jettyWidth=17;jettyHeight=6;direction=west;" parent="1" vertex="1">
          <mxGeometry x="140" y="290" width="70" height="30" as="geometry" />
        </mxCell>
        <mxCell id="qi3RKUOaajVcWp68-wjY-13" value="Adapter" style="shape=module;align=left;spacingLeft=-12;align=center;verticalAlign=top;whiteSpace=wrap;html=1;spacingTop=3;spacing=0;fillColor=light-dark(#FFFFFF,#333333);strokeColor=default;perimeterSpacing=0;jettyWidth=17;jettyHeight=6;direction=west;" parent="1" vertex="1">
          <mxGeometry x="140" y="360" width="70" height="30" as="geometry" />
        </mxCell>
        <mxCell id="qi3RKUOaajVcWp68-wjY-17" value="&lt;font style=&quot;font-size: 20px;&quot;&gt;Port&lt;/font&gt;" style="text;html=1;align=center;verticalAlign=middle;resizable=0;points=[];autosize=1;strokeColor=none;fillColor=none;rotation=270;" parent="1" vertex="1">
          <mxGeometry x="190" y="315" width="60" height="40" as="geometry" />
        </mxCell>
        <mxCell id="qi3RKUOaajVcWp68-wjY-18" value="" style="rounded=0;whiteSpace=wrap;html=1;fillColor=light-dark(#FFCCCC,#FF3333);strokeColor=#36393d;" parent="1" vertex="1">
          <mxGeometry x="581" y="268" width="40" height="140" as="geometry" />
        </mxCell>
        <mxCell id="qi3RKUOaajVcWp68-wjY-19" value="&lt;font style=&quot;font-size: 20px;&quot;&gt;Port&lt;/font&gt;" style="text;html=1;align=center;verticalAlign=middle;resizable=0;points=[];autosize=1;strokeColor=none;fillColor=none;rotation=90;" parent="1" vertex="1">
          <mxGeometry x="571" y="313" width="60" height="40" as="geometry" />
        </mxCell>
        <mxCell id="qi3RKUOaajVcWp68-wjY-11" value="Adapter" style="shape=module;align=left;spacingLeft=20;align=center;verticalAlign=top;whiteSpace=wrap;html=1;spacingTop=3;spacing=0;fillColor=light-dark(#FFFFFF,#333333);strokeColor=default;perimeterSpacing=0;jettyWidth=17;jettyHeight=6;" parent="1" vertex="1">
          <mxGeometry x="610" y="290" width="70" height="30" as="geometry" />
        </mxCell>
        <mxCell id="qi3RKUOaajVcWp68-wjY-12" value="Adapter" style="shape=module;align=left;spacingLeft=20;align=center;verticalAlign=top;whiteSpace=wrap;html=1;spacingTop=3;spacing=0;fillColor=light-dark(#FFFFFF,#333333);strokeColor=default;perimeterSpacing=0;jettyWidth=17;jettyHeight=6;" parent="1" vertex="1">
          <mxGeometry x="611" y="360" width="70" height="30" as="geometry" />
        </mxCell>
        <mxCell id="qi3RKUOaajVcWp68-wjY-20" value="&lt;font style=&quot;font-size: 14px;&quot;&gt;Application Service&lt;/font&gt;" style="text;html=1;align=center;verticalAlign=middle;resizable=0;points=[];autosize=1;strokeColor=none;fillColor=none;rotation=0;" parent="1" vertex="1">
          <mxGeometry x="342" y="188" width="140" height="30" as="geometry" />
        </mxCell>
        <mxCell id="qi3RKUOaajVcWp68-wjY-22" value="" style="endArrow=classic;html=1;rounded=0;sketch=1;curveFitting=1;jiggle=2;entryX=0.304;entryY=0.119;entryDx=0;entryDy=0;entryPerimeter=0;" parent="1" target="qi3RKUOaajVcWp68-wjY-3" edge="1">
          <mxGeometry width="50" height="50" relative="1" as="geometry">
            <mxPoint x="482" y="210" as="sourcePoint" />
            <mxPoint x="562" y="280" as="targetPoint" />
          </mxGeometry>
        </mxCell>
        <mxCell id="qi3RKUOaajVcWp68-wjY-23" value="" style="endArrow=classic;html=1;rounded=0;sketch=1;curveFitting=1;jiggle=2;entryX=0.304;entryY=0.857;entryDx=0;entryDy=0;entryPerimeter=0;" parent="1" target="qi3RKUOaajVcWp68-wjY-3" edge="1">
          <mxGeometry width="50" height="50" relative="1" as="geometry">
            <mxPoint x="350" y="210" as="sourcePoint" />
            <mxPoint x="270" y="280" as="targetPoint" />
          </mxGeometry>
        </mxCell>
        <mxCell id="qi3RKUOaajVcWp68-wjY-24" value="implements" style="text;html=1;align=center;verticalAlign=middle;resizable=0;points=[];autosize=1;strokeColor=none;fillColor=none;rotation=0;" parent="1" vertex="1">
          <mxGeometry x="621" y="260" width="80" height="30" as="geometry" />
        </mxCell>
        <mxCell id="qi3RKUOaajVcWp68-wjY-25" value="uses" style="text;html=1;align=center;verticalAlign=middle;resizable=0;points=[];autosize=1;strokeColor=none;fillColor=none;rotation=0;" parent="1" vertex="1">
          <mxGeometry x="150" y="250" width="50" height="30" as="geometry" />
        </mxCell>
        <mxCell id="qi3RKUOaajVcWp68-wjY-27" value="" style="endArrow=classic;html=1;rounded=0;sketch=1;curveFitting=1;jiggle=2;entryX=0.304;entryY=0.857;entryDx=0;entryDy=0;entryPerimeter=0;exitX=0.933;exitY=-0.002;exitDx=0;exitDy=0;exitPerimeter=0;" parent="1" source="qi3RKUOaajVcWp68-wjY-11" edge="1">
          <mxGeometry width="50" height="50" relative="1" as="geometry">
            <mxPoint x="651.06" y="279.52" as="sourcePoint" />
            <mxPoint x="621" y="279.68" as="targetPoint" />
            <Array as="points">
              <mxPoint x="660" y="280" />
            </Array>
          </mxGeometry>
        </mxCell>
        <mxCell id="qi3RKUOaajVcWp68-wjY-28" value="implements" style="text;html=1;align=center;verticalAlign=middle;resizable=0;points=[];autosize=1;strokeColor=none;fillColor=none;rotation=-30;" parent="1" vertex="1">
          <mxGeometry x="250" y="200" width="80" height="30" as="geometry" />
        </mxCell>
        <mxCell id="qi3RKUOaajVcWp68-wjY-29" value="uses" style="text;html=1;align=center;verticalAlign=middle;resizable=0;points=[];autosize=1;strokeColor=none;fillColor=none;rotation=30;" parent="1" vertex="1">
          <mxGeometry x="510" y="200" width="50" height="30" as="geometry" />
        </mxCell>
        <mxCell id="qi3RKUOaajVcWp68-wjY-30" value="" style="endArrow=classic;html=1;rounded=0;sketch=1;curveFitting=1;jiggle=2;entryX=0.025;entryY=0.04;entryDx=0;entryDy=0;entryPerimeter=0;" parent="1" target="qi3RKUOaajVcWp68-wjY-15" edge="1">
          <mxGeometry width="50" height="50" relative="1" as="geometry">
            <mxPoint x="140" y="290" as="sourcePoint" />
            <mxPoint x="200" y="260" as="targetPoint" />
            <Array as="points">
              <mxPoint x="170" y="276" />
            </Array>
          </mxGeometry>
        </mxCell>
        <mxCell id="qi3RKUOaajVcWp68-wjY-31" value="" style="verticalLabelPosition=bottom;verticalAlign=top;html=1;shadow=0;dashed=0;strokeWidth=1;shape=mxgraph.android.phone2;strokeColor=#c0c0c0;" parent="1" vertex="1">
          <mxGeometry x="25" y="290" width="20" height="40" as="geometry" />
        </mxCell>
        <mxCell id="qi3RKUOaajVcWp68-wjY-32" value="" style="sketch=0;aspect=fixed;pointerEvents=1;shadow=0;dashed=0;html=1;strokeColor=none;labelPosition=center;verticalLabelPosition=bottom;verticalAlign=top;align=center;fillColor=#00188D;shape=mxgraph.azure.laptop" parent="1" vertex="1">
          <mxGeometry y="353" width="50" height="30" as="geometry" />
        </mxCell>
        <mxCell id="qi3RKUOaajVcWp68-wjY-33" value="" style="shape=cylinder3;whiteSpace=wrap;html=1;boundedLbl=1;backgroundOutline=1;size=4.500000000000057;" parent="1" vertex="1">
          <mxGeometry x="760" y="355" width="35" height="40" as="geometry" />
        </mxCell>
        <mxCell id="qi3RKUOaajVcWp68-wjY-34" value="" style="image;aspect=fixed;html=1;points=[];align=center;fontSize=12;image=img/lib/azure2/general/Files.svg;" parent="1" vertex="1">
          <mxGeometry x="760" y="283" width="33.83" height="37" as="geometry" />
        </mxCell>
        <mxCell id="vN8yyV160887OnD7T2qb-1" value="" style="endArrow=classic;html=1;rounded=0;sketch=1;curveFitting=1;jiggle=2;" parent="1" edge="1">
          <mxGeometry width="50" height="50" relative="1" as="geometry">
            <mxPoint x="70" y="309.5" as="sourcePoint" />
            <mxPoint x="130" y="309.5" as="targetPoint" />
          </mxGeometry>
        </mxCell>
        <mxCell id="vN8yyV160887OnD7T2qb-2" value="" style="endArrow=classic;html=1;rounded=0;sketch=1;curveFitting=1;jiggle=2;" parent="1" edge="1">
          <mxGeometry width="50" height="50" relative="1" as="geometry">
            <mxPoint x="70" y="372.5" as="sourcePoint" />
            <mxPoint x="130" y="372.5" as="targetPoint" />
          </mxGeometry>
        </mxCell>
        <mxCell id="vN8yyV160887OnD7T2qb-3" value="" style="endArrow=classic;html=1;rounded=0;sketch=1;curveFitting=1;jiggle=2;" parent="1" edge="1">
          <mxGeometry width="50" height="50" relative="1" as="geometry">
            <mxPoint x="685" y="303" as="sourcePoint" />
            <mxPoint x="745" y="303" as="targetPoint" />
          </mxGeometry>
        </mxCell>
        <mxCell id="vN8yyV160887OnD7T2qb-4" value="" style="endArrow=classic;html=1;rounded=0;sketch=1;curveFitting=1;jiggle=2;" parent="1" edge="1">
          <mxGeometry width="50" height="50" relative="1" as="geometry">
            <mxPoint x="685" y="373" as="sourcePoint" />
            <mxPoint x="745" y="373" as="targetPoint" />
          </mxGeometry>
        </mxCell>
      </root>
    </mxGraphModel>
  </diagram>
</mxfile>
